<?xml version="1.0" encoding="UTF-8" standalone="no"?>
<!DOCTYPE svg PUBLIC "-//W3C//DTD SVG 1.1//EN" "http://www.w3.org/Graphics/SVG/1.1/DTD/svg11.dtd">
<svg width="100%" height="100%" viewBox="0 0 511 511" version="1.1" xmlns="http://www.w3.org/2000/svg" xmlns:xlink="http://www.w3.org/1999/xlink" xml:space="preserve" xmlns:serif="http://www.serif.com/" style="fill-rule:evenodd;clip-rule:evenodd;stroke-linejoin:round;stroke-miterlimit:2;">
    <g transform="matrix(-0.863305,0,0,0.863305,476.923,35.7868)">
        <path d="M417.219,269.306C411.352,269.306 405.784,265.836 403.391,260.077L403.001,259.142C399.827,251.508 403.441,242.744 411.075,239.571C418.708,236.401 427.472,240.011 430.646,247.649L431.036,248.584C434.209,256.218 430.595,264.982 422.962,268.155C421.083,268.935 419.137,269.306 417.219,269.306Z" style="fill-rule:nonzero;"/>
    </g>
    <g transform="matrix(-0.863305,0,0,0.863305,476.923,35.7868)">
        <path d="M507.776,433.847L431.044,248.604C427.878,240.966 419.125,237.337 411.484,240.499C403.847,243.664 400.217,252.421 403.383,260.062L406.907,268.565L370.779,318.452C366.708,315.512 361.262,314.674 356.28,316.736C348.642,319.898 345.016,328.654 348.178,336.296L406.042,475.987C411.671,489.57 422.252,500.155 435.839,505.781C442.634,508.596 449.773,510.003 456.911,510.003C464.049,510.003 471.188,508.596 477.979,505.781C506.026,494.163 519.394,461.894 507.776,433.847Z" style="fill:rgb(217,217,217);fill-rule:nonzero;"/>
    </g>
    <g transform="matrix(-0.863305,0,0,0.863305,476.923,35.7868)">
        <path d="M477.063,170.776L420.373,114.086C414.525,108.242 405.047,108.242 399.203,114.086L346.837,166.448C340.989,172.292 340.989,181.77 346.837,187.618C352.681,193.462 362.159,193.466 368.007,187.621L368.007,187.618L403.531,223.142C397.683,228.99 397.683,238.467 403.531,244.311C406.455,247.235 410.283,248.697 414.116,248.697C417.948,248.697 421.776,247.235 424.7,244.311L477.063,191.949C482.911,186.101 482.911,176.623 477.063,170.776Z" style="fill:rgb(0,33,90);fill-rule:nonzero;"/>
    </g>
    <g transform="matrix(-0.863305,0,0,0.863305,476.923,35.7868)">
        <path d="M279.473,62.078C279.473,45.228 272.915,29.388 261.001,17.478C249.087,5.563 233.251,-0.998 216.401,-0.998C199.551,-0.998 183.715,5.563 171.8,17.478C159.886,29.388 153.325,45.228 153.325,62.074L153.325,126.214C153.325,130.187 154.904,133.992 157.711,136.803C160.518,139.61 164.327,141.185 168.295,141.185L264.502,141.185C268.471,141.185 272.28,139.61 275.087,136.803C277.894,133.992 279.473,130.187 279.473,126.214L279.473,62.078Z" style="fill:rgb(127,232,129);fill-rule:nonzero;"/>
    </g>
    <g transform="matrix(-0.863305,0,0,0.863305,476.923,35.7868)">
        <path d="M275.087,136.799C277.898,133.992 279.473,130.187 279.473,126.214L279.473,62.078C279.473,45.228 272.915,29.388 261.001,17.478C249.087,5.563 233.251,-0.998 216.401,-0.998L216.401,141.185L264.502,141.185C268.475,141.185 272.28,139.61 275.087,136.799Z" style="fill:rgb(31,191,102);fill-rule:nonzero;"/>
    </g>
    <g transform="matrix(-0.863305,0,0,0.863305,476.923,35.7868)">
        <path d="M279.473,126.214C279.473,117.949 272.771,111.243 264.502,111.243L168.295,111.243C160.026,111.243 153.325,117.949 153.325,126.214L153.325,174.319C153.325,178.288 154.904,182.097 157.711,184.904C160.518,187.711 164.327,189.29 168.295,189.29L264.502,189.29C268.475,189.29 272.284,187.711 275.087,184.904C277.898,182.093 279.473,178.288 279.473,174.319L279.473,126.214Z" style="fill:rgb(255,99,123);fill-rule:nonzero;"/>
    </g>
    <g transform="matrix(-0.863305,0,0,0.863305,476.923,35.7868)">
        <path d="M279.473,126.214C279.473,117.949 272.771,111.243 264.502,111.243L216.401,111.243L216.401,189.29L264.502,189.29C268.475,189.29 272.284,187.711 275.087,184.904C277.898,182.093 279.473,178.288 279.473,174.319L279.473,126.214Z" style="fill:rgb(255,23,134);fill-rule:nonzero;"/>
    </g>
    <g transform="matrix(-0.863305,0,0,0.863305,476.923,35.7868)">
        <path d="M403.936,187.216C385.964,169.243 362.073,159.349 336.658,159.349L56.054,159.349C25.699,159.349 0.998,184.046 0.998,214.405L0.998,294.58C0.998,324.939 25.695,349.637 56.054,349.637L336.658,349.637C362.073,349.637 385.964,339.738 403.936,321.769C421.905,303.801 431.804,279.906 431.804,254.491C431.804,229.079 421.905,205.185 403.936,187.216Z" style="fill:rgb(217,217,217);fill-rule:nonzero;"/>
    </g>
    <g transform="matrix(-0.863305,0,0,0.863305,476.923,35.7868)">
        <path d="M403.936,187.216C385.964,169.243 362.073,159.349 336.658,159.349L216.401,159.349L216.401,349.637L336.658,349.637C362.073,349.637 385.964,339.738 403.936,321.769C421.905,303.801 431.804,279.906 431.804,254.491C431.804,229.079 421.905,205.185 403.936,187.216Z" style="fill:rgb(189,225,232);fill-rule:nonzero;"/>
    </g>
</svg>
